<?xml version="1.0" encoding="UTF-8" standalone="no"?>
<svg
   viewBox="0 0 8 8.0000001"
   version="1.1"
   x="0px"
   y="0px"
   id="svg4"
   sodipodi:docname="defimage.svg"
   width="8"
   height="8"
   inkscape:version="1.3.2 (091e20e, 2023-11-25, custom)"
   xmlns:inkscape="http://www.inkscape.org/namespaces/inkscape"
   xmlns:sodipodi="http://sodipodi.sourceforge.net/DTD/sodipodi-0.dtd"
   xmlns="http://www.w3.org/2000/svg"
   xmlns:svg="http://www.w3.org/2000/svg">
  <defs
     id="defs4" />
  <sodipodi:namedview
     id="namedview4"
     pagecolor="#ffffff"
     bordercolor="#000000"
     borderopacity="0.25"
     inkscape:showpageshadow="2"
     inkscape:pageopacity="0.0"
     inkscape:pagecheckerboard="0"
     inkscape:deskcolor="#d1d1d1"
     inkscape:zoom="115.36826"
     inkscape:cx="4.2299328"
     inkscape:cy="5.29175"
     inkscape:window-width="3440"
     inkscape:window-height="1417"
     inkscape:window-x="-8"
     inkscape:window-y="-8"
     inkscape:window-maximized="1"
     inkscape:current-layer="svg4" />
  <g
     transform="matrix(1.2483727,0,0,1.2483727,-87.11915,-201.80594)"
     id="g3">
    <path
       style="color:#bbbbbb"
       d="m 70.609375,161.68359 c -0.435244,0 -0.792969,0.35968 -0.792969,0.79493 v 4.76171 c 0,0.43525 0.357725,0.79493 0.792969,0.79493 h 2.646484 a 0.2645835,0.2645835 0 0 0 0.263672,-0.26563 0.2645835,0.2645835 0 0 0 -0.263672,-0.26367 h -2.646484 c -0.149261,0 -0.265625,-0.11636 -0.265625,-0.26563 v -4.76171 c 0,-0.14927 0.116364,-0.26563 0.265625,-0.26563 h 4.761719 c 0.149261,0 0.265625,0.11636 0.265625,0.26563 v 4.76171 c 0,0.14927 -0.116364,0.26563 -0.265625,0.26563 h -0.263672 a 0.2645835,0.2645835 0 0 0 -0.265625,0.26367 0.2645835,0.2645835 0 0 0 0.265625,0.26563 h 0.263672 c 0.435244,0 0.794922,-0.35968 0.794922,-0.79493 v -4.76171 c 0,-0.43525 -0.359678,-0.79493 -0.794922,-0.79493 z m 3.439453,5.82227 a 0.2645835,0.2645835 0 0 0 -0.263672,0.26367 0.2645835,0.2645835 0 0 0 0.263672,0.26563 H 74.3125 a 0.2645835,0.2645835 0 0 0 0.265625,-0.26563 0.2645835,0.2645835 0 0 0 -0.265625,-0.26367 z"
       fill="#bbbbbb"
       stroke-linecap="round"
       stroke-linejoin="round"
       id="path1" />
    <path
       style="color:#bbbbbb"
       d="m 70.554687,164.53906 -0.662109,0.66211 a 0.2645835,0.2645835 0 0 0 0,0.375 0.2645835,0.2645835 0 0 0 0.375,0 l 0.660156,-0.66211 c 0.118079,-0.11808 0.301844,-0.11808 0.419922,0 l 1.058594,1.0586 c 0.320299,0.3203 0.847668,0.32029 1.167969,0 l 0.265625,-0.26563 c 0.127921,-0.12792 0.325536,-0.13531 0.46289,-0.0176 l 1.425782,1.22266 a 0.2645835,0.2645835 0 0 0 0.373046,-0.0293 0.2645835,0.2645835 0 0 0 -0.0293,-0.37304 l -1.425782,-1.22071 c -0.343573,-0.29449 -0.861664,-0.27505 -1.18164,0.0449 l -0.263672,0.26368 c -0.11808,0.11807 -0.301843,0.11808 -0.419922,0 l -1.058594,-1.0586 c -0.320299,-0.3203 -0.84767,-0.3203 -1.167969,0 z"
       fill="#bbbbbb"
       stroke-linecap="round"
       stroke-linejoin="round"
       id="path2" />
    <path
       fill="#bbbbbb"
       style="font-variation-settings:'wght' 700"
       d="m 74.84263,163.53627 a 0.52916104,0.52916104 0 0 1 -0.529161,0.52916 0.52916104,0.52916104 0 0 1 -0.529161,-0.52916 0.52916104,0.52916104 0 0 1 0.529161,-0.52916 0.52916104,0.52916104 0 0 1 0.529161,0.52916 z"
       stroke-width="0.529167"
       stroke-linecap="round"
       stroke-linejoin="round"
       id="path3" />
  </g>
  <text
     x="0"
     y="23.466799"
     fill="#bbbbbb"
     font-size="5px"
     font-weight="bold"
     font-family="'Helvetica Neue', Helvetica, Arial-Unicode, Arial, Sans-serif"
     id="text3">Created by Meko</text>
  <text
     x="0"
     y="28.466799"
     fill="#bbbbbb"
     font-size="5px"
     font-weight="bold"
     font-family="'Helvetica Neue', Helvetica, Arial-Unicode, Arial, Sans-serif"
     id="text4">from the Noun Project</text>
</svg>
